<svg width="27" height="27" viewBox="0 0 27 27" fill="none" xmlns="http://www.w3.org/2000/svg">
<path d="M20.8886 10.2307L20.8887 10.2307C21.0686 10.0575 21.3535 10.0584 21.5323 10.2326M20.8886 10.2307L21.4276 10.3401M20.8886 10.2307C20.8164 10.3003 20.1514 10.9467 19.3485 11.9004V4.99667C19.3485 4.15086 18.6605 3.46315 17.8147 3.46315H9.68292V1.96043C9.68292 1.34791 9.18505 0.85 8.57271 0.85H4.14068C3.52833 0.85 3.03047 1.34791 3.03047 1.96043V3.46315H2.38354C1.53775 3.46315 0.85 4.15089 0.85 4.99667V24.6165C0.85 25.4623 1.53775 26.15 2.38354 26.15H2.43025L2.4303 26.15M20.8886 10.2307L2.4303 26.15M21.5323 10.2326L21.4276 10.3401M21.5323 10.2326C21.5322 10.2326 21.5322 10.2326 21.5322 10.2326L21.4276 10.3401M21.5323 10.2326C21.6286 10.3265 22.7778 11.456 23.9041 12.9681C24.4674 13.7244 25.0274 14.5795 25.447 15.4511C25.8658 16.3212 26.15 17.2182 26.15 18.0554C26.15 20.7797 23.9337 22.9958 21.2096 22.996C20.5504 22.996 19.9232 22.8625 19.3487 22.6267M21.4276 10.3401C21.6144 10.522 26 14.8334 26 18.0554C26 20.6969 23.8509 22.8458 21.2096 22.846C20.5491 22.846 19.9215 22.7077 19.3487 22.4641V22.6267M19.3487 22.6267V24.6164C19.3487 25.4623 18.6607 26.15 17.815 26.15H2.4303M19.3487 22.6267C19.2983 22.606 19.2483 22.5845 19.1987 22.5623V24.6164C19.1987 25.3794 18.5779 26 17.815 26L2.4303 26.15M16.3268 11.9039L16.327 11.9038C16.6688 11.7622 16.89 11.4311 16.89 11.0611V6.97769C16.89 6.34491 16.3753 5.82999 15.7423 5.82999H11.6588C11.2887 5.82999 10.9577 6.05144 10.8161 6.39321L10.8161 6.39325C10.6746 6.73519 10.7521 7.1256 11.0139 7.3872C11.0139 7.38721 11.0139 7.38723 11.0139 7.38725L15.3328 11.706C15.5076 11.8808 15.7399 11.9736 15.977 11.9736C16.0949 11.9736 16.2136 11.9506 16.3268 11.9039ZM15.9648 11.0301L11.6898 6.75496H15.7423C15.8649 6.75496 15.9648 6.85494 15.9648 6.97749V11.0301ZM18.9168 13.9762C19.7718 12.7613 20.7221 11.7271 21.2078 11.2232C21.6931 11.7315 22.6444 12.7754 23.5006 13.995C23.9629 14.6534 24.3954 15.3601 24.7118 16.0588C25.0288 16.7589 25.2251 17.4418 25.2251 18.0553C25.2251 20.2693 23.4237 22.0707 21.2097 22.0707C18.9958 22.0707 17.1942 20.2693 17.1942 18.0553C17.1942 17.4308 17.3904 16.742 17.707 16.0395C18.0231 15.3384 18.455 14.6324 18.9168 13.9762ZM3.95547 1.96056C3.95547 1.85827 4.03878 1.77509 4.14073 1.77509H8.57276C8.6747 1.77509 8.75801 1.85827 8.75801 1.96056V3.46328H3.95545L3.95547 1.96056ZM1.775 4.9968C1.775 4.66134 2.04812 4.38822 2.38359 4.38822H17.815C18.1504 4.38822 18.4235 4.66133 18.4235 4.9968V13.0724C17.8812 13.8088 17.3487 14.6345 16.9491 15.4782C16.5429 16.3358 16.2693 17.2213 16.2693 18.0555C16.2693 19.747 17.1249 21.2406 18.4235 22.1311V24.6165C18.4235 24.952 18.1504 25.2251 17.815 25.2251H2.38359C2.04812 25.2251 1.775 24.952 1.775 24.6165V4.9968Z" fill="#FD7C1E" stroke="#FD7C1E" stroke-width="0.3"/>
</svg>
